<?xml version="1.0" standalone="no"?>
<!DOCTYPE svg PUBLIC "-//W3C//DTD SVG 20010904//EN"
 "http://www.w3.org/TR/2001/REC-SVG-20010904/DTD/svg10.dtd">
<svg version="1.0" xmlns="http://www.w3.org/2000/svg"
 width="1024.000000pt" height="1024.000000pt" viewBox="0 0 1024.000000 1024.000000"
 preserveAspectRatio="xMidYMid meet">

<g transform="translate(0.000000,1024.000000) scale(0.100000,-0.100000)"
fill="#4D90FE" stroke="none">
<path d="M4383 7483 c412 -2 1082 -2 1490 0 408 1 72 2 -748 2 -819 0 -1153
-1 -742 -2z"/>
<path d="M3435 7470 c-22 -4 5 -5 60 -2 55 2 102 6 104 8 7 7 -122 1 -164 -6z"/>
<path d="M6668 7473 c18 -2 45 -2 60 0 15 2 0 4 -33 4 -33 0 -45 -2 -27 -4z"/>
<path d="M6773 7463 c9 -2 23 -2 30 0 6 3 -1 5 -18 5 -16 0 -22 -2 -12 -5z"/>
<path d="M3345 7455 c-5 -2 -30 -9 -54 -15 -23 -6 -41 -13 -39 -15 2 -2 35 4
73 15 39 10 61 18 50 18 -11 0 -24 -1 -30 -3z"/>
<path d="M6898 7434 c46 -13 97 -31 112 -39 37 -19 53 -19 20 0 -32 18 -175
65 -198 64 -9 0 20 -11 66 -25z"/>
<path d="M3150 7384 c-41 -19 -101 -55 -135 -79 -100 -71 -236 -221 -284 -312
-23 -44 -3 -22 33 36 48 78 173 211 252 267 34 24 99 62 145 84 46 22 79 40
74 40 -6 0 -44 -16 -85 -36z"/>
<path d="M7146 7321 c93 -62 158 -120 238 -211 28 -32 38 -41 25 -20 -42 63
-166 179 -252 235 -47 30 -89 55 -93 55 -4 0 33 -27 82 -59z"/>
<path d="M7450 7020 c18 -30 53 -100 99 -200 l11 -25 -6 25 c-8 37 -80 181
-105 210 -21 25 -21 24 1 -10z"/>
<path d="M2700 6939 c-7 -11 -10 -23 -7 -25 2 -2 9 7 15 21 14 30 7 33 -8 4z"/>
<path d="M2660 6844 c-26 -70 -50 -170 -49 -204 0 -14 9 13 19 60 10 47 27
109 39 139 11 30 19 57 17 59 -2 2 -14 -22 -26 -54z"/>
<path d="M7561 6780 c0 -8 4 -24 9 -35 5 -13 9 -14 9 -5 0 8 -4 24 -9 35 -5
13 -9 14 -9 5z"/>
<path d="M7587 6665 c3 -33 7 -62 9 -64 7 -8 2 63 -7 94 -5 20 -6 9 -2 -30z"/>
<path d="M3702 6660 c63 -11 118 -43 148 -87 l25 -37 5 -940 5 -941 0 941 0
940 -28 43 c-33 49 -111 91 -167 90 -32 -1 -31 -2 12 -9z"/>
<path d="M3610 6650 c-18 -12 -2 -12 25 0 13 6 15 9 5 9 -8 0 -22 -4 -30 -9z"/>
<path d="M3551 6611 c-34 -32 -61 -87 -60 -123 0 -13 6 -2 13 24 14 50 26 71
66 105 14 12 22 22 19 23 -4 0 -21 -13 -38 -29z"/>
<path d="M2603 6555 c0 -33 2 -45 4 -27 2 18 2 45 0 60 -2 15 -4 0 -4 -33z"/>
<path d="M7605 5120 c0 -811 1 -1143 2 -737 2 405 2 1069 0 1475 -1 405 -2 73
-2 -738z"/>
<path d="M2595 5110 c0 -756 1 -1066 2 -688 2 379 2 997 0 1376 -1 378 -2 68
-2 -688z"/>
<path d="M4946 6445 c-22 -8 -51 -22 -65 -33 -28 -20 -71 -88 -71 -111 0 -8
12 9 26 37 19 39 38 59 72 80 l47 27 847 0 c466 0 840 3 830 7 -9 4 -384 7
-832 7 -675 0 -822 -2 -854 -14z"/>
<path d="M6698 6410 c93 -67 108 -182 39 -282 -39 -57 -198 -238 -718 -819
-179 -200 -513 -574 -741 -830 -229 -256 -438 -485 -464 -508 -27 -24 -78 -60
-114 -82 -36 -21 -60 -39 -55 -39 17 0 147 88 189 128 38 36 456 501 946 1052
135 151 324 363 421 470 335 372 547 619 568 663 27 55 27 126 1 176 -19 37
-84 101 -104 101 -5 0 10 -13 32 -30z"/>
<path d="M4802 6255 c0 -16 2 -22 5 -12 2 9 2 23 0 30 -3 6 -5 -1 -5 -18z"/>
<path d="M4816 6195 c9 -47 52 -95 108 -121 l51 -24 588 0 c323 0 587 -3 587
-8 0 -4 -57 -70 -127 -147 -71 -78 -220 -244 -333 -370 -113 -126 -313 -348
-445 -494 -132 -147 -340 -377 -463 -513 -231 -257 -264 -286 -362 -312 -30
-8 -45 -15 -33 -15 39 -1 128 38 172 75 23 20 151 158 285 308 134 149 299
332 366 406 68 74 229 254 360 400 131 146 319 355 418 465 99 110 178 203
176 207 -3 4 -272 8 -598 8 l-592 0 -51 25 c-51 26 -77 54 -101 110 l-12 30 6
-30z"/>
<path d="M3483 5415 c-1 -418 2 -785 5 -815 7 -51 5 1320 -1 1495 -2 44 -3
-262 -4 -680z"/>
<path d="M3891 4630 c-2 -41 26 -135 58 -199 35 -68 114 -158 162 -184 30 -16
31 -16 9 0 -101 70 -189 208 -214 338 -8 39 -15 59 -15 45z"/>
<path d="M3502 4520 c0 -14 2 -19 5 -12 2 6 2 18 0 25 -3 6 -5 1 -5 -13z"/>
<path d="M3510 4479 c0 -38 89 -259 105 -259 3 0 -6 22 -20 50 -14 27 -39 89
-55 137 -16 49 -30 81 -30 72z"/>
<path d="M4186 4210 c22 -11 71 -21 110 -24 l69 -6 -80 14 c-44 7 -90 18 -102
24 -12 7 -25 12 -30 11 -4 0 10 -9 33 -19z"/>
<path d="M3630 4193 c5 -12 37 -56 70 -97 68 -86 184 -183 271 -227 86 -43 86
-35 -1 12 -130 71 -222 156 -333 309 -15 21 -16 21 -7 3z"/>
<path d="M5405 4116 c-16 -7 -71 -55 -121 -107 -182 -186 -205 -223 -165 -262
l22 -22 727 0 727 -1 -726 6 c-766 5 -759 5 -759 50 0 9 13 35 28 56 38 52
229 252 256 267 15 9 174 13 596 17 l575 5 -565 2 c-447 2 -571 -1 -595 -11z"/>
<path d="M6619 4120 c97 -21 161 -99 161 -195 0 -83 -60 -159 -148 -185 -17
-5 -20 -9 -9 -9 45 -2 118 53 148 111 59 115 -25 272 -152 283 l-44 4 44 -9z"/>
<path d="M4600 3840 c-8 -5 -10 -10 -5 -10 6 0 17 5 25 10 8 5 11 10 5 10 -5
0 -17 -5 -25 -10z"/>
<path d="M4075 3826 c53 -25 181 -46 267 -44 l83 1 -110 7 c-94 6 -145 15
-252 45 -10 3 -4 -1 12 -9z"/>
<path d="M4495 3810 c-38 -10 -61 -19 -50 -19 23 -1 124 25 133 33 7 8 -3 6
-83 -14z"/>
<path d="M2603 3680 c0 -30 2 -43 4 -27 2 15 2 39 0 55 -2 15 -4 2 -4 -28z"/>
<path d="M7592 3600 c0 -19 2 -27 5 -17 2 9 2 25 0 35 -3 9 -5 1 -5 -18z"/>
<path d="M2611 3603 c-1 -26 19 -126 25 -121 2 2 -3 35 -10 74 -8 38 -15 59
-15 47z"/>
<path d="M7582 3540 c0 -14 2 -19 5 -12 2 6 2 18 0 25 -3 6 -5 1 -5 -13z"/>
<path d="M7552 3437 c-13 -40 -25 -79 -28 -87 -5 -13 -4 -13 5 0 15 21 53 138
49 149 -2 6 -13 -22 -26 -62z"/>
<path d="M2645 3445 c10 -49 91 -212 139 -279 77 -108 220 -237 319 -287 61
-32 42 -14 -35 31 -84 50 -213 171 -273 255 -46 65 -94 156 -132 250 -13 33
-21 47 -18 30z"/>
<path d="M7501 3303 c-10 -26 -10 -27 4 -9 8 11 15 23 15 28 0 15 -7 8 -19
-19z"/>
<path d="M7445 3209 c-128 -208 -371 -373 -635 -430 -68 -15 -74 -17 -30 -13
65 7 208 52 282 90 162 82 346 255 417 392 23 43 3 21 -34 -39z"/>
<path d="M3205 2830 c33 -16 67 -29 75 -29 8 0 -16 13 -55 29 -88 38 -99 37
-20 0z"/>
<path d="M3337 2785 c23 -7 68 -16 100 -19 l58 -5 -65 13 c-133 26 -140 27
-93 11z"/>
<path d="M3543 2753 c26 -2 68 -2 95 0 26 2 4 3 -48 3 -52 0 -74 -1 -47 -3z"/>
<path d="M5200 2750 l-1405 -5 1395 -1 c767 -1 1427 2 1465 6 l70 7 -60 -1
c-33 -1 -692 -3 -1465 -6z"/>
</g>
</svg>
